<svg width="599" height="290" viewBox="0 0 599 290" fill="none" xmlns="http://www.w3.org/2000/svg">
<mask id="mask0" mask-type="alpha" maskUnits="userSpaceOnUse" x="195" y="143" width="47" height="46">
<circle cx="218.705" cy="166" r="23" fill="#C4C4C4"/>
</mask>
<g mask="url(#mask0)">
<circle cx="218.705" cy="166" r="23" fill="#212E79"/>
<circle cx="209.14" cy="166" r="23" fill="#293788"/>
</g>
<mask id="mask1" mask-type="alpha" maskUnits="userSpaceOnUse" x="287" y="22" width="37" height="36">
<circle cx="305.705" cy="40" r="18" fill="#C4C4C4"/>
</mask>
<g mask="url(#mask1)">
<circle cx="305.705" cy="40" r="18" fill="#212E79"/>
<circle cx="298.219" cy="40" r="18" fill="#293788"/>
</g>
<mask id="mask2" mask-type="alpha" maskUnits="userSpaceOnUse" x="521" y="22" width="55" height="54">
<circle cx="548.705" cy="49" r="27" fill="#C4C4C4"/>
</mask>
<g mask="url(#mask2)">
<circle cx="548.705" cy="49" r="27" fill="#212E79"/>
<circle cx="537.476" cy="49" r="27" fill="#293788"/>
</g>
<path d="M255.705 83C220.196 81.6657 204.785 69.9537 165.242 34.6065C142.07 13.8938 113.628 13.4861 90.2051 19.0249C73.6559 22.9383 59.6127 29.8204 51.7051 34.6065C76.1846 32.6058 105.424 99.3008 91.7051 182C108.491 179.866 139.831 175.281 152.205 167.5C173.51 152.561 203.709 135.757 216.891 131.978C239.487 127.71 256.973 131.089 262.891 133.312C282.905 140.248 314.809 144.65 328.259 145.984C417.999 147.051 429.136 106.857 423.487 86.627C401.536 50.3461 333.908 71.2871 322.61 75.2892C311.312 79.2912 291.214 84.3343 255.705 83Z" fill="#293788"/>
<path d="M93.1052 103.177C98.9947 127.678 99.0536 150.718 94.7521 168.028C90.3435 185.768 82.0869 195.238 73.2074 197.372C64.3279 199.507 52.6691 194.824 40.6794 181.025C28.9809 167.562 18.5615 147.012 12.672 122.511C6.78251 98.0103 6.72361 74.9694 11.0251 57.6603C15.4337 39.9204 23.6903 30.4498 32.5698 28.3154C41.4493 26.181 53.1081 30.8643 65.0978 44.6624C76.7963 58.1255 87.2158 78.6759 93.1052 103.177Z" fill="#293788" stroke="#B2BDFE" stroke-width="16"/>
<line x1="76.901" y1="197.903" x2="105.608" y2="279.804" stroke="#B2BDFE" stroke-width="16" stroke-linecap="round"/>
<path d="M156.095 40.752C179.691 40.8631 191.711 49.6906 192.155 67.2347C192.044 82.1138 187.047 93.4397 177.165 101.212C192.044 105.709 199.511 115.564 199.567 130.776C199.178 136.939 197.873 142.435 195.653 147.266C188.158 163.477 170.614 171.583 143.021 171.583C139.689 171.583 134.693 171.389 128.03 171C126.698 171 125.476 170.639 124.366 169.917C122.201 168.363 121.118 166.031 121.118 162.922L136.275 48.2471C136.33 47.3033 136.553 46.3872 136.941 45.4989C138.107 43.0006 140.106 41.7514 142.937 41.7514C147.545 41.0851 151.931 40.752 156.095 40.752ZM141.771 110.956C141.771 110.956 139.689 126.668 135.525 158.092C138.69 158.314 141.161 158.425 142.937 158.425C151.654 158.425 159.288 157.398 165.839 155.344C179.441 151.013 186.242 142.824 186.242 130.776C186.187 122.56 180.746 116.924 169.92 113.871C164.09 112.316 154.707 111.345 141.771 110.956ZM148.85 53.4937L143.354 97.215C145.186 97.215 146.879 97.1595 148.434 97.0485C168.754 95.9381 178.914 86.0834 178.914 67.4845C178.858 62.9319 176.998 59.4342 173.334 56.9914C169.337 54.493 162.508 53.2438 152.847 53.2438C151.57 53.2438 150.238 53.3271 148.85 53.4937ZM252.699 125.946C253.143 122.56 253.698 116.203 254.364 106.875C254.42 106.431 254.475 106.015 254.531 105.626C255.197 102.128 257.334 100.324 260.943 100.213C261.11 100.213 261.304 100.241 261.526 100.296C264.524 100.629 266.023 102.961 266.023 107.292C266.023 108.402 265.912 110.068 265.69 112.288C265.579 113.288 265.496 114.037 265.44 114.537C264.496 129.583 264.025 139.104 264.025 143.102C264.025 144.545 264.108 145.989 264.274 147.432C265.163 154.483 267.633 158.009 271.686 158.009C272.241 158.009 272.824 157.953 273.435 157.842C275.045 157.453 277.405 156.149 280.514 153.928C283.567 151.707 286.01 150.597 287.842 150.597C288.564 150.597 289.258 150.819 289.924 151.263C291.645 152.318 292.506 153.956 292.506 156.176C292.506 156.343 292.478 156.565 292.423 156.843C292.034 159.508 289.73 162.256 285.51 165.087C280.347 168.585 275.212 170.334 270.104 170.334C263.22 170.278 258.306 167.141 255.364 160.923C250.478 166.919 243.788 169.945 235.293 170.001C233.295 170.001 231.407 169.751 229.63 169.251C219.915 166.309 215.057 155.621 215.057 137.189C215.057 128.306 216.028 119.367 217.971 110.373C218.082 109.929 218.193 109.457 218.305 108.957C220.026 102.85 222.468 99.7967 225.633 99.7967C229.575 99.8522 231.601 102.017 231.712 106.292C231.712 107.181 231.463 109.152 230.963 112.205C229.02 124.641 228.048 133.636 228.048 139.188C228.048 150.736 230.991 156.565 236.876 156.676C244.482 156.621 249.756 146.377 252.699 125.946ZM311.41 43.5835C311.965 43.5835 312.548 43.6113 313.159 43.6668C322.764 44.2775 327.566 49.8572 327.566 60.4058C327.566 71.7317 322.736 84.3346 313.076 98.2144C306.747 107.264 300.056 114.676 293.006 120.45C293.45 124.003 294.005 127.306 294.671 130.36C298.613 149.236 305.692 158.675 315.907 158.675C319.849 158.675 323.597 157.537 327.15 155.26C333.59 151.096 338.726 143.879 342.556 133.608C339.836 133.219 337.338 132.414 335.061 131.193C329.176 127.973 326.234 122.754 326.234 115.536C326.234 111.872 327.566 108.68 330.231 105.959C333.229 102.906 336.755 101.379 340.808 101.379C344.805 101.379 348.247 102.489 351.134 104.71C355.02 107.764 356.964 111.983 356.964 117.368C356.908 119.589 356.88 120.727 356.88 120.783C357.824 120.339 358.99 119.7 360.378 118.868C362.543 117.48 364.348 116.786 365.791 116.786C366.568 116.786 367.346 117.008 368.123 117.452C369.955 118.451 370.871 120.033 370.871 122.199C370.871 123.476 370.399 124.697 369.455 125.863C366.902 129.028 361.933 131.387 354.549 132.942C352.05 141.991 348.108 149.903 342.723 156.676C335.117 166.225 326.511 171 316.907 171C303.138 170.944 293.061 162.367 286.676 145.267C282.29 133.386 280.097 119.256 280.097 102.878C280.097 101.934 280.153 100.74 280.264 99.297C281.041 87.638 283.234 76.9228 286.843 67.1514C292.672 51.4395 300.862 43.5835 311.41 43.5835ZM293.588 92.3016C292.978 96.7986 292.589 101.129 292.423 105.293C295.92 101.795 299.446 97.5759 302.999 92.6347C311.827 80.365 316.24 69.9551 316.24 61.4052C316.24 60.961 316.129 60.4336 315.907 59.8229C315.019 57.38 313.575 56.1586 311.577 56.1586C307.08 56.2141 303.304 59.2122 300.251 65.1527C297.475 70.7046 295.254 79.7542 293.588 92.3016ZM341.973 112.955C341.418 112.955 340.835 113.066 340.225 113.288C338.448 113.954 337.56 115.175 337.56 116.952C337.615 120.117 340.28 121.949 345.554 122.448C345.554 122.06 345.582 121.477 345.638 120.7C345.749 119.534 345.804 118.701 345.804 118.201C345.804 117.924 345.777 117.618 345.721 117.285C345.443 114.398 344.194 112.955 341.973 112.955ZM390.525 43.5835C391.08 43.5835 391.663 43.6113 392.274 43.6668C401.879 44.2775 406.681 49.8572 406.681 60.4058C406.681 71.7317 401.851 84.3346 392.191 98.2144C385.861 107.264 379.171 114.676 372.12 120.45C372.565 124.003 373.12 127.306 373.786 130.36C377.728 149.236 384.806 158.675 395.022 158.675C398.964 158.675 402.711 157.537 406.265 155.26C412.705 151.096 417.84 143.879 421.671 133.608C418.951 133.219 416.452 132.414 414.176 131.193C408.291 127.973 405.349 122.754 405.349 115.536C405.349 111.872 406.681 108.68 409.346 105.959C412.344 102.906 415.869 101.379 419.922 101.379C423.92 101.379 427.362 102.489 430.249 104.71C434.135 107.764 436.078 111.983 436.078 117.368C436.023 119.589 435.995 120.727 435.995 120.783C436.939 120.339 438.105 119.7 439.493 118.868C441.658 117.48 443.462 116.786 444.906 116.786C445.683 116.786 446.461 117.008 447.238 117.452C449.07 118.451 449.986 120.033 449.986 122.199C449.986 123.476 449.514 124.697 448.57 125.863C446.016 129.028 441.047 131.387 433.663 132.942C431.165 141.991 427.223 149.903 421.838 156.676C414.232 166.225 405.626 171 396.021 171C382.253 170.944 372.176 162.367 365.791 145.267C361.405 133.386 359.212 119.256 359.212 102.878C359.212 101.934 359.268 100.74 359.379 99.297C360.156 87.638 362.349 76.9228 365.958 67.1514C371.787 51.4395 379.976 43.5835 390.525 43.5835ZM372.703 92.3016C372.093 96.7986 371.704 101.129 371.537 105.293C375.035 101.795 378.561 97.5759 382.114 92.6347C390.941 80.365 395.355 69.9551 395.355 61.4052C395.355 60.961 395.244 60.4336 395.022 59.8229C394.134 57.38 392.69 56.1586 390.692 56.1586C386.194 56.2141 382.419 59.2122 379.366 65.1527C376.59 70.7046 374.369 79.7542 372.703 92.3016ZM421.088 112.955C420.533 112.955 419.95 113.066 419.339 113.288C417.563 113.954 416.674 115.175 416.674 116.952C416.73 120.117 419.395 121.949 424.669 122.448C424.669 122.06 424.697 121.477 424.753 120.7C424.864 119.534 424.919 118.701 424.919 118.201C424.919 117.924 424.891 117.618 424.836 117.285C424.558 114.398 423.309 112.955 421.088 112.955ZM474.97 171C461.59 170.445 451.679 162.283 445.239 146.516C440.464 134.635 438.077 120.089 438.077 102.878C438.077 101.99 438.133 100.852 438.244 99.4636C439.021 87.749 441.186 77.006 444.739 67.2347C450.513 51.4672 458.675 43.5835 469.223 43.5835C469.779 43.5835 470.362 43.6113 470.972 43.6668C480.577 44.2775 485.379 49.8572 485.379 60.4058C485.379 71.8983 480.438 84.6677 470.556 98.714C464.282 107.653 457.703 114.898 450.819 120.45C452.706 130.998 454.788 138.91 457.065 144.184C461.284 153.956 467.558 158.841 475.886 158.841C476.441 158.841 477.024 158.786 477.635 158.675C479.467 158.342 482.021 157.009 485.296 154.677C488.461 152.512 490.931 151.429 492.708 151.429C493.485 151.429 494.235 151.679 494.957 152.179C496.567 153.289 497.372 154.788 497.372 156.676C497.261 159.563 495.206 162.533 491.209 165.587C486.212 169.196 480.799 171 474.97 171ZM469.307 56.1586C466.031 56.2141 463.144 57.6299 460.646 60.4058C454.317 67.5678 450.847 82.5302 450.236 105.293C453.567 101.906 456.898 97.909 460.229 93.3009C469.445 80.6981 474.054 70.0662 474.054 61.4052C474.054 60.961 473.943 60.4336 473.72 59.8229C472.832 57.38 471.361 56.1586 469.307 56.1586ZM554.751 104.044C555.917 101.157 557.971 99.6856 560.913 99.6301C562.024 99.6856 563.134 99.7967 564.244 99.9632C573.572 101.462 581.15 106.209 586.98 114.204C592.42 121.699 595.141 130.249 595.141 139.854C595.141 148.903 592.587 156.843 587.479 163.671C585.258 166.558 582.843 168.03 580.234 168.085C579.124 168.085 578.069 167.613 577.069 166.67C575.626 165.282 574.904 163.755 574.904 162.089C574.904 161.367 575.043 160.618 575.321 159.841C575.321 159.841 575.654 159.23 576.32 158.009C580.317 151.624 582.344 145.156 582.399 138.605C582.399 137.827 582.371 137.05 582.316 136.273C581.761 129.111 578.957 123.031 573.905 118.035C570.685 114.704 567.742 113.01 565.077 112.955C564.689 115.453 563.828 118.423 562.496 121.866C558.498 132.47 552.752 142.019 545.257 150.513C533.098 164.338 519.468 171.25 504.367 171.25C502.257 171.25 500.259 171.028 498.371 170.584C488.655 168.085 483.797 159.452 483.797 144.684C483.797 142.796 483.908 140.798 484.13 138.688C485.296 129.194 488.294 120.755 493.124 113.371C499.065 104.321 506.171 99.7967 514.444 99.7967C518.053 99.7967 521.3 100.629 524.187 102.295C529.24 105.182 531.766 109.818 531.766 116.203C531.766 116.869 531.738 117.563 531.682 118.285C531.072 127.445 526.602 134.468 518.275 139.354C512.667 142.63 506.838 144.268 500.786 144.268C499.287 144.268 497.816 144.129 496.372 143.851C496.317 144.684 496.289 145.85 496.289 147.349C496.289 149.236 496.483 150.902 496.872 152.346C498.149 156.621 501.563 158.758 507.115 158.758C510.28 158.758 513.417 158.231 516.526 157.176C526.852 153.567 536.124 144.379 544.341 129.61C549.282 120.727 552.752 112.205 554.751 104.044ZM511.529 112.288C510.863 112.677 510.169 113.149 509.447 113.704C504.783 117.368 501.175 123.559 498.621 132.275C499.787 132.497 501.064 132.608 502.452 132.608C507.171 132.608 511.307 131.221 514.86 128.445C518.691 125.335 520.606 121.643 520.606 117.368C520.606 116.98 520.579 116.591 520.523 116.203C520.19 112.594 518.83 110.762 516.442 110.706C515.054 110.706 513.417 111.234 511.529 112.288Z" fill="#B2BDFE"/>
<path d="M173.609 206.812H181.959V231H184.365V206.812H192.715V204.65H173.609V206.812ZM204.291 231H219.833V228.839H206.697V218.893H218.765V216.732H206.697V206.812H219.576V204.65H204.291V231ZM231.962 231H234.368V220.347H240.505C240.853 220.347 241.187 220.334 241.509 220.308L247.286 231H250.065L243.979 219.845C247.26 218.764 248.958 216.063 248.958 212.537C248.958 207.931 246.064 204.65 240.467 204.65H231.962V231ZM234.368 218.147V206.812H240.403C244.571 206.812 246.591 209.089 246.591 212.537C246.591 215.985 244.571 218.147 240.441 218.147H234.368ZM261.017 231L263.834 223.062H274.899L277.717 231H280.239L270.653 204.65H268.08L258.495 231H261.017ZM264.606 220.9L269.277 207.777H269.457L274.127 220.9H264.606ZM290.914 231H293.32V220.926H299.457C305.028 220.926 307.91 217.388 307.91 212.782C307.91 208.176 305.028 204.65 299.418 204.65H290.914V231ZM293.32 218.764V206.812H299.354C303.523 206.812 305.543 209.321 305.543 212.782C305.543 216.23 303.523 218.764 299.393 218.764H293.32ZM322.123 204.65H319.717V231H322.123V204.65ZM335.327 231L338.144 223.062H349.209L352.027 231H354.549L344.963 204.65H342.39L332.805 231H335.327ZM338.916 220.9L343.587 207.777H343.767L348.437 220.9H338.916ZM403.175 217.825C403.175 209.578 398.44 204.29 391.776 204.29C385.124 204.29 380.389 209.591 380.389 217.825C380.389 226.059 385.111 231.36 391.776 231.36C398.44 231.36 403.175 226.072 403.175 217.825ZM400.833 217.825C400.846 224.914 396.974 229.096 391.776 229.096C386.565 229.096 382.718 224.889 382.718 217.825C382.718 210.723 386.604 206.555 391.776 206.555C396.974 206.555 400.833 210.736 400.833 217.825ZM435.674 204.65H433.307V226.741H433.101L417.482 204.65H415.153V231H417.559V208.935H417.765L433.333 231H435.674V204.65ZM448.839 231H463.802V228.839H451.245V204.65H448.839V231ZM477.784 204.65H475.378V231H477.784V204.65ZM511.47 204.65H509.103V226.741H508.897L493.278 204.65H490.949V231H493.355V208.935H493.561L509.129 231H511.47V204.65ZM524.635 231H540.177V228.839H527.041V218.893H539.109V216.732H527.041V206.812H539.92V204.65H524.635V231Z" fill="#B2BDFE"/>
</svg>
