<svg width="40" height="40" viewBox="0 0 40 40" fill="none" xmlns="http://www.w3.org/2000/svg">
<circle cx="20" cy="20" r="20" fill="#E1E1E1"/>
<path d="M10.9296 21.0975C10.4604 21.0975 10.08 20.7171 10.08 20.2478V18.6097C10.08 18.1404 10.4604 17.76 10.9296 17.76C11.3989 17.76 11.7793 18.1404 11.7793 18.6097V20.2478C11.7793 20.7171 11.3989 21.0975 10.9296 21.0975Z" fill="#5B6F82" fill-opacity="0.7"/>
<path d="M29.033 21.0975C28.5638 21.0975 28.1833 20.7171 28.1833 20.2478V18.6097C28.1833 18.1404 28.5638 17.76 29.033 17.76C29.5023 17.76 29.8827 18.1404 29.8827 18.6097V20.2478C29.8827 20.7171 29.5023 21.0975 29.033 21.0975Z" fill="#5B6F82" fill-opacity="0.7"/>
<path d="M19.9812 22.3082C18.6663 22.3082 17.4325 21.7596 16.5965 20.8032C16.2876 20.4499 16.3236 19.9131 16.677 19.6043C17.0303 19.2955 17.567 19.3314 17.8759 19.6848C18.3892 20.2719 19.1565 20.6087 19.9811 20.6087C20.8057 20.6087 21.5729 20.2719 22.0863 19.6848C22.3951 19.3314 22.9319 19.2955 23.2853 19.6043C23.6386 19.9131 23.6747 20.4499 23.3657 20.8032C22.5299 21.7597 21.2962 22.3082 19.9812 22.3082Z" fill="#5B6F82" fill-opacity="0.7"/>
</svg>
