<svg width="573" height="573" viewBox="0 0 573 573" fill="none" xmlns="http://www.w3.org/2000/svg">
<g clip-path="url(#clip0)">
<path d="M572.973 313.256C568.978 371.121 541.576 422.544 500.156 458.118C495.146 462.422 487.57 461.71 483.527 456.488L363.213 301.074H561.505C568.122 301.074 573.428 306.655 572.973 313.256Z" fill="#5D5AD9"/>
<path d="M550.401 245.428H324.794V17.0826C324.794 10.5488 330.241 5.28004 336.767 5.60588C458.669 11.6808 557.226 109.998 561.884 233.581C562.129 240.061 556.886 245.428 550.401 245.428Z" fill="#18F5A6"/>
<path d="M410.822 520.9C369.049 549.865 318.447 566.98 263.854 567.397C263.178 567.397 262.501 567.409 261.836 567.409C261.137 567.409 260.449 567.409 259.762 567.397C115.342 566.281 -0.2142 449.609 2.271e-05 305.178C0.20297 164.783 110.922 50.287 249.828 44.0182C256.368 43.7251 261.836 48.9566 261.836 55.5073V308.718L263.854 311.323L413.337 504.439C417.362 509.637 416.223 517.158 410.822 520.9Z" fill="#033976"/>
<path d="M410.822 520.9C369.049 549.865 318.447 566.98 263.854 567.398C263.178 567.398 262.501 567.409 261.836 567.409V308.718L263.854 311.323L413.337 504.439C417.362 509.638 416.223 517.158 410.822 520.9Z" fill="#002651"/>
<path d="M444.078 303.432C444.078 403.928 362.321 485.673 261.836 485.673C161.34 485.673 79.5836 403.928 79.5836 303.432C79.5836 202.935 161.34 121.179 261.836 121.179C362.321 121.179 444.078 202.935 444.078 303.432Z" fill="#FCFAFA"/>
<path d="M409.629 303.431C409.629 384.924 343.34 451.212 261.836 451.225H261.825C180.332 451.225 114.032 384.924 114.032 303.431C114.032 221.928 180.332 155.627 261.825 155.627H261.836C343.34 155.638 409.629 221.928 409.629 303.431Z" fill="#033976"/>
<path d="M409.629 303.431C409.629 384.924 343.34 451.212 261.836 451.225V155.626C343.34 155.638 409.629 221.928 409.629 303.431Z" fill="#002651"/>
<path d="M329.519 336.05C329.519 361.997 309.257 385.58 278.749 385.58V400.316C278.749 409.652 271.172 417.229 261.836 417.229C252.489 417.229 244.924 409.652 244.924 400.316V385.58C232.221 385.58 221.317 383.359 209.408 375.095C201.73 369.762 199.824 359.231 205.146 351.553C210.468 343.886 221.01 341.969 228.688 347.302C232.758 350.132 237.415 351.71 241.801 351.756H280C288.701 351.756 295.695 344.72 295.695 336.05C295.695 327.391 288.648 320.344 279.989 320.344H243.672C216.365 320.344 194.142 298.121 194.142 270.813C194.142 244.838 214.422 221.283 244.924 221.283V206.547C244.924 197.211 252.489 189.634 261.836 189.634C271.172 189.634 278.749 197.211 278.749 206.547V221.283C293.407 221.283 308.91 227.553 320.217 239.627C326.61 246.448 326.261 257.148 319.451 263.541C312.629 269.923 301.93 269.573 295.537 262.763C291.038 257.96 284.905 255.164 278.692 255.107H243.661C234.972 255.107 227.967 262.145 227.967 270.813C227.967 279.472 235.013 286.519 243.672 286.519H279.989C307.308 286.519 329.519 308.742 329.519 336.05Z" fill="#FCFAFA"/>
</g>
<defs>
<clipPath id="clip0">
<rect width="573" height="573" fill="white"/>
</clipPath>
</defs>
</svg>
