<svg height="512pt" viewBox="0 0 512 512" width="512pt" xmlns="http://www.w3.org/2000/svg"><path d="m512 256c0 141.386719-114.613281 256-256 256s-256-114.613281-256-256 114.613281-256 256-256 256 114.613281 256 256zm0 0" fill="#ffe05c"/><path d="m161.355469 249.535156c0 15.710938-11.476563 28.742188-26.507813 31.160156-1.644531.265626-3.332031.402344-5.058594.402344-17.433593 0-31.5625-14.125-31.5625-31.5625s14.128907-31.566406 31.5625-31.566406c1.726563 0 3.414063.140625 5.058594.40625 15.03125 2.417969 26.507813 15.445312 26.507813 31.160156zm0 0" fill="#f6ba97"/><path d="m161.355469 249.535156c0 15.710938-11.476563 28.742188-26.507813 31.160156-2.730468-9.929687-4.1875-20.378906-4.1875-31.160156 0-10.785156 1.457032-21.234375 4.1875-31.160156 15.03125 2.417969 26.507813 15.445312 26.507813 31.160156zm0 0" fill="#eaa27f"/><path d="m141.074219 249.535156c0 6.230469-5.050781 11.28125-11.285157 11.28125-6.230468 0-11.28125-5.050781-11.28125-11.28125 0-6.230468 5.050782-11.28125 11.28125-11.28125 6.234376 0 11.285157 5.050782 11.285157 11.28125zm0 0" fill="#eaa27f"/><path d="m350.640625 249.535156c0 15.710938 11.476563 28.742188 26.507813 31.160156 1.644531.265626 3.332031.402344 5.058593.402344 17.4375 0 31.5625-14.125 31.5625-31.5625s-14.125-31.566406-31.5625-31.566406c-1.726562 0-3.414062.140625-5.058593.40625-15.03125 2.417969-26.507813 15.445312-26.507813 31.160156zm0 0" fill="#f6ba97"/><path d="m350.640625 249.535156c0 15.710938 11.476563 28.742188 26.507813 31.160156 2.730468-9.929687 4.191406-20.378906 4.191406-31.160156 0-10.785156-1.457032-21.234375-4.191406-31.160156-15.03125 2.417969-26.507813 15.445312-26.507813 31.160156zm0 0" fill="#eaa27f"/><path d="m393.488281 249.535156c0 6.230469-5.050781 11.28125-11.28125 11.28125s-11.28125-5.050781-11.28125-11.28125c0-6.230468 5.050781-11.28125 11.28125-11.28125s11.28125 5.050782 11.28125 11.28125zm0 0" fill="#eaa27f"/><path d="m393.851562 267.308594c-.226562-.171875-.476562-.296875-.730468-.394532-1.277344-.890624-2.621094-1.644531-4.035156-2.230468-1 1.859375-2.191407 3.59375-3.539063 5.203125 1.625.503906 3.160156 1.304687 4.574219 2.359375.628906.46875 1.25.988281 1.863281 1.550781 4.300781 4.273437 6.898437 10.964844 6.898437 18.066406 0 12.511719-7.796874 22.691407-17.378906 22.691407-9.578125 0-17.375-10.179688-17.375-22.691407 0-8.300781 3.492188-15.945312 9.113282-19.945312 1.382812-.984375 1.703124-2.898438.722656-4.277344-.980469-1.378906-2.898438-1.703125-4.277344-.71875-7.210938 5.132813-11.691406 14.6875-11.691406 24.941406 0 15.894531 10.546875 28.824219 23.507812 28.824219 12.964844 0 23.511719-12.929688 23.511719-28.824219 0-10.09375-4.175781-19.273437-11.164063-24.554687zm0 0" fill="#fff"/><path d="m118.144531 267.308594c.230469-.171875.476563-.296875.730469-.394532 1.277344-.890624 2.625-1.644531 4.035156-2.230468 1.003906 1.859375 2.195313 3.59375 3.542969 5.203125-1.628906.503906-3.164063 1.304687-4.578125 2.359375-.628906.46875-1.25.988281-1.863281 1.550781-4.296875 4.273437-6.898438 10.964844-6.898438 18.066406 0 12.511719 7.796875 22.691407 17.378907 22.691407 9.582031 0 17.375-10.179688 17.375-22.691407 0-8.300781-3.492188-15.945312-9.113282-19.945312-1.378906-.984375-1.703125-2.898438-.71875-4.277344.980469-1.378906 2.894532-1.703125 4.277344-.71875 7.210938 5.132813 11.691406 14.6875 11.691406 24.941406 0 15.894531-10.546875 28.824219-23.511718 28.824219-12.964844 0-23.511719-12.929688-23.511719-28.824219 0-10.09375 4.171875-19.273437 11.164062-24.554687zm0 0" fill="#fff"/><path d="m151.035156 274.375h206.878906v184.9375h-206.878906zm0 0" fill="#151a1c"/><path d="m382.121094 449.578125v29.246094c-15.035156 8.515625-31.011719 15.578125-47.75 20.9375-1.734375.566406-3.46875 1.097656-5.226563 1.621093-6.507812 1.945313-13.132812 3.636719-19.851562 5.046876-2.945313.625-5.902344 1.203124-8.882813 1.714843-14.429687 2.539063-29.265625 3.855469-44.40625 3.855469-7.242187 0-14.429687-.292969-21.527344-.898438-7.730468-.636718-15.359374-1.632812-22.882812-2.949218-2.976562-.511719-5.933594-1.085938-8.878906-1.710938-7.808594-1.652344-15.464844-3.660156-22.988282-6-.417968-.136718-.835937-.261718-1.253906-.394531-.28125-.085937-.554687-.179687-.835937-.273437-16.730469-5.359376-32.714844-12.421876-47.753907-20.949219v-29.246094c0-35.289063 19.207032-66.089844 47.753907-82.507813.269531-.15625.554687-.3125.835937-.46875 7.511719-4.230468 15.640625-7.460937 24.242188-9.519531 4.710937-1.136719 9.558594-1.921875 14.523437-2.320312 2.570313-.207031 5.160157-.3125 7.785157-.3125h61.949218c7.324219 0 14.453125.816406 21.296875 2.382812.34375.082031.6875.15625 1.023438.238281 8.914062 2.144532 17.335937 5.539063 25.078125 10 28.535156 16.425782 47.75 47.230469 47.75 82.507813zm0 0" fill="#eaa27f"/><path d="m382.121094 449.578125v29.246094c-35.421875 20.101562-76.121094 31.992187-119.503906 33.089843-2.203126.054688-4.398438.085938-6.613282.085938s-4.421875-.03125-6.613281-.09375c-24.671875-.617188-48.464844-4.734375-70.917969-11.859375v-50.46875c0-52.539063 42.597656-95.128906 95.148438-95.128906h13.351562c52.558594 0 95.148438 42.589843 95.148438 95.128906zm0 0" fill="#f6ba97"/><path d="m289.941406 317.800781v41.65625c0 15.25-10.054687 28.140625-23.90625 32.421875-3.167968.980469-6.546875 1.515625-10.042968 1.515625-18.742188 0-33.9375-15.195312-33.9375-33.9375v-41.65625zm0 0" fill="#eaa27f"/><path d="m289.941406 356.816406v2.640625c0 15.25-10.054687 28.140625-23.90625 32.421875-12.496094-3.84375-21.890625-14.707031-23.625-28.003906 2.265625.140625 4.546875.210938 6.835938.210938 6.421875 0 12.71875-.511719 18.851562-1.519532 7.554688-1.210937 14.855469-3.15625 21.84375-5.75zm0 0" fill="#f6ba97"/><path d="m373.4375 188.039062v44.722657c0 58.441406-42.691406 106.921875-98.59375 115.917969-.1875.03125-.386719.0625-.574219.097656-5.945312.949218-12.050781 1.417968-18.277343 1.417968-64.855469 0-117.4375-52.578124-117.4375-117.433593v-44.722657c0-13.65625 2.332031-26.78125 6.636718-38.976562 16.058594-45.703125 59.613282-78.46875 110.800782-78.46875h.011718c6.214844 0 12.328125.480469 18.285156 1.417969 56.171876 8.777343 99.148438 57.386719 99.148438 116.027343zm0 0" fill="#eaa27f"/><path d="m373.4375 188.039062v44.722657c0 58.441406-42.691406 106.921875-98.59375 115.917969-.1875.03125-.386719.0625-.574219.097656-56.175781-8.777344-99.140625-57.386719-99.140625-116.015625v-44.722657c0-58.640624 42.976563-107.25 99.160156-116.027343 56.171876 8.777343 99.148438 57.386719 99.148438 116.027343zm0 0" fill="#f6ba97"/><g fill="#eaa27f"><path d="m335.933594 263.59375c0 8.082031-6.550782 14.628906-14.628906 14.628906-8.078126 0-14.628907-6.546875-14.628907-14.628906 0-8.078125 6.550781-14.628906 14.628907-14.628906 8.078124 0 14.628906 6.550781 14.628906 14.628906zm0 0"/><path d="m205.320312 263.59375c0 8.082031-6.550781 14.628906-14.628906 14.628906s-14.628906-6.546875-14.628906-14.628906c0-8.078125 6.550781-14.628906 14.628906-14.628906s14.628906 6.550781 14.628906 14.628906zm0 0"/><path d="m319.066406 222.84375c0-10.773438-8.734375-19.507812-19.503906-19.507812-10.773438 0-19.507812 8.734374-19.507812 19.507812"/><path d="m231.949219 222.84375c0-10.773438-8.734375-19.507812-19.503907-19.507812-10.773437 0-19.507812 8.734374-19.507812 19.507812"/></g><path d="m225.765625 231.144531c0 7.359375-5.964844 13.324219-13.320313 13.324219-7.359374 0-13.324218-5.964844-13.324218-13.324219 0-7.355469 5.964844-13.320312 13.324218-13.320312 7.355469 0 13.320313 5.964843 13.320313 13.320312zm0 0" fill="#2f373b"/><path d="m312.882812 231.144531c0 7.359375-5.964843 13.324219-13.320312 13.324219-7.359375 0-13.324219-5.964844-13.324219-13.324219 0-7.355469 5.964844-13.320312 13.324219-13.320312 7.355469 0 13.320312 5.964843 13.320312 13.320312zm0 0" fill="#2f373b"/><path d="m269.324219 264.6875h-26.644531c-3.171876 0-5.746094-2.570312-5.746094-5.746094 0-3.171875 2.574218-5.746094 5.746094-5.746094h26.644531c3.175781 0 5.75 2.574219 5.75 5.746094 0 3.175782-2.574219 5.746094-5.75 5.746094zm0 0" fill="#eaa27f"/><path d="m256.003906 301.046875c-9.835937 0-19.667968-2.460937-28.632812-7.390625-2.527344-1.390625-3.453125-4.566406-2.0625-7.09375s4.566406-3.449219 7.09375-2.0625c14.777344 8.125 32.421875 8.125 47.199218 0 2.527344-1.390625 5.703126-.46875 7.09375 2.0625 1.390626 2.527344.46875 5.703125-2.0625 7.09375-8.960937 4.929688-18.796874 7.390625-28.628906 7.390625zm0 0" fill="#eaa27f"/><path d="m223.050781 228.796875c0 3.152344-2.554687 5.707031-5.707031 5.707031-3.15625 0-5.710938-2.554687-5.710938-5.707031 0-3.15625 2.554688-5.710937 5.710938-5.710937 3.152344 0 5.707031 2.554687 5.707031 5.710937zm0 0" fill="#fff"/><path d="m310.820312 228.796875c0 3.152344-2.554687 5.707031-5.707031 5.707031-3.152343 0-5.707031-2.554687-5.707031-5.707031 0-3.15625 2.554688-5.710937 5.707031-5.710937 3.152344 0 5.707031 2.554687 5.707031 5.710937zm0 0" fill="#fff"/><path d="m345.675781 90.550781c-24.125-24.179687-56.308593-37.511719-90.632812-37.542969-34.355469.03125-66.625 13.363282-90.867188 37.554688-24.292969 24.21875-37.667969 56.496094-37.667969 90.863281v173.910157c0 11.214843 4.933594 21.757812 13.542969 28.945312l17.535157 14.628906v-198.007812h194.464843v198.007812l17.53125-14.628906c8.613281-7.1875 13.542969-17.730469 13.542969-28.945312v-173.910157c0-34.410156-13.300781-66.683593-37.449219-90.875zm0 0" fill="#2f373b"/><path d="m286.367188 56.851562c-22.339844 5.558594-42.820313 17.0625-59.496094 33.707032-24.292969 24.222656-37.667969 56.5-37.667969 90.867187v19.476563h-31.617187v198.007812l-17.535157-14.628906c-8.609375-7.1875-13.542969-17.730469-13.542969-28.945312v-173.910157c0-34.367187 13.375-66.644531 37.667969-90.867187 24.242188-24.1875 56.511719-37.519532 90.867188-37.550782 10.710937.007813 21.210937 1.316407 31.324219 3.84375zm0 0" fill="#151a1c"/><path d="m234.476562 511.101562c-7.730468-.636718-15.359374-1.632812-22.882812-2.949218-2.976562-.511719-5.933594-1.085938-8.878906-1.710938-7.808594-1.652344-15.464844-3.660156-22.988282-6-.417968-.136718-.835937-.261718-1.253906-.394531v-133.445313c7.511719-4.230468 15.640625-7.460937 24.242188-9.519531 0 42.695313 27.269531 76.132813 31.761718 154.019531zm0 0" fill="#f46d11"/><path d="m277.527344 511.101562c7.734375-.636718 15.359375-1.632812 22.882812-2.949218 2.980469-.511719 5.9375-1.085938 8.882813-1.710938 7.804687-1.652344 15.464843-3.660156 22.988281-6 .417969-.136718.835938-.261718 1.253906-.394531v-133.445313c-7.511718-4.230468-15.644531-7.460937-24.242187-9.519531 0 42.695313-27.273438 76.132813-31.765625 154.019531zm0 0" fill="#f46d11"/></svg>