<svg height="512pt" viewBox="0 0 512 512" width="512pt" xmlns="http://www.w3.org/2000/svg"><path d="m512 256c0 141.386719-114.613281 256-256 256s-256-114.613281-256-256 114.613281-256 256-256 256 114.613281 256 256zm0 0" fill="#27ba9e"/><path d="m138.554688 211.484375h234.882812v242.628906h-234.882812zm0 0" fill="#dd104f"/><path d="m382.121094 449.578125v29.246094c-15.035156 8.515625-31.011719 15.578125-47.75 20.9375-1.734375.566406-3.46875 1.097656-5.226563 1.621093-6.507812 1.945313-13.132812 3.636719-19.851562 5.046876-2.945313.625-5.902344 1.203124-8.882813 1.714843-14.429687 2.539063-29.265625 3.855469-44.40625 3.855469s-29.980468-1.316406-44.410156-3.847656c-2.097656-.363282-4.199219-.75-6.277344-1.179688-.867187-.167968-1.734375-.34375-2.601562-.53125-7.808594-1.652344-15.464844-3.660156-22.988282-6-.417968-.136718-.835937-.261718-1.253906-.394531-.28125-.085937-.554687-.179687-.835937-.273437-1.203125-.386719-2.414063-.785157-3.605469-1.191407-12.265625-4.136719-24.117188-9.183593-35.476562-15.066406-1.242188-.636719-2.472657-1.285156-3.707032-1.953125-1.660156-.890625-3.324218-1.808594-4.964844-2.738281v-29.246094c0-10.636719 1.746094-20.867187 4.964844-30.417969 1.074219-3.1875 2.308594-6.300781 3.707032-9.332031 7.683593-16.695313 20.074218-30.792969 35.476562-40.574219 1.179688-.75 2.382812-1.480468 3.605469-2.183594 7.742187-4.460937 16.164062-7.855468 25.078125-9.988281.855468-.207031 1.722656-.40625 2.601562-.585937 3.886719-.824219 7.867188-1.410156 11.921875-1.734375 2.570313-.207031 5.160157-.3125 7.785157-.3125h61.949218c7.324219 0 14.453125.816406 21.296875 2.382812.34375.082031.6875.15625 1.023438.238281 8.914062 2.144532 17.335937 5.539063 25.078125 10 28.535156 16.425782 47.75 47.230469 47.75 82.507813zm0 0" fill="#151a1c"/><path d="m382.121094 449.578125v29.246094c-35.425782 20.105469-76.121094 31.996093-119.507813 33.09375-2.203125.050781-4.398437.082031-6.613281.082031s-4.417969-.03125-6.613281-.09375c-24.671875-.617188-48.464844-4.734375-70.917969-11.859375v-50.46875c0-52.539063 42.601562-95.128906 95.148438-95.128906h13.355468c52.554688 0 95.148438 42.589843 95.148438 95.128906zm0 0" fill="#2f373b"/><path d="m177.1875 449.578125v50.058594c-16.574219-5.359375-32.402344-12.359375-47.304688-20.8125v-29.246094zm0 0" fill="#eaa27f"/><path d="m382.121094 449.578125v29.246094c-14.898438 8.453125-30.730469 15.453125-47.300782 20.8125v-50.058594zm0 0" fill="#f6ba97"/><path d="m297.097656 356.601562v2.375c0 18.128907-11.628906 33.90625-28.953125 39.253907-3.917969 1.222656-8.015625 1.839843-12.152343 1.839843-22.664063 0-41.097657-18.433593-41.097657-41.09375v-4.246093c2.320313-.1875 4.660157-.28125 7.035157-.28125h55.941406c6.613281 0 13.050781.742187 19.226562 2.152343zm0 0" fill="#151a1c"/><path d="m289.9375 317.800781v41.65625c0 15.25-10.054688 28.140625-23.90625 32.421875-3.167969.984375-6.546875 1.515625-10.042969 1.515625-18.742187 0-33.9375-15.191406-33.9375-33.9375v-41.65625zm0 0" fill="#eaa27f"/><path d="m289.9375 356.820312v2.636719c0 15.25-10.054688 28.140625-23.90625 32.421875-12.492188-3.839844-21.890625-14.707031-23.625-28 2.265625.136719 4.546875.207032 6.835938.207032 6.421874 0 12.71875-.507813 18.851562-1.515626 7.554688-1.214843 14.855469-3.160156 21.84375-5.75zm0 0" fill="#f6ba97"/><path d="m161.351562 249.535156c0 15.710938-11.476562 28.742188-26.507812 31.160156-1.640625.265626-3.332031.402344-5.054688.402344-17.4375 0-31.566406-14.125-31.566406-31.5625s14.128906-31.566406 31.566406-31.566406c1.722657 0 3.414063.140625 5.054688.40625 15.03125 2.417969 26.507812 15.445312 26.507812 31.160156zm0 0" fill="#f6ba97"/><path d="m161.351562 249.535156c0 15.710938-11.476562 28.742188-26.507812 31.160156-2.730469-9.929687-4.1875-20.378906-4.1875-31.160156 0-10.785156 1.457031-21.234375 4.1875-31.160156 15.03125 2.417969 26.507812 15.445312 26.507812 31.160156zm0 0" fill="#eaa27f"/><path d="m141.070312 249.535156c0 6.230469-5.050781 11.28125-11.28125 11.28125-6.230468 0-11.28125-5.050781-11.28125-11.28125 0-6.230468 5.050782-11.28125 11.28125-11.28125 6.230469 0 11.28125 5.050782 11.28125 11.28125zm0 0" fill="#eaa27f"/><path d="m350.636719 249.535156c0 15.710938 11.480469 28.742188 26.511719 31.160156 1.640624.265626 3.332031.402344 5.054687.402344 17.4375 0 31.566406-14.125 31.566406-31.5625s-14.128906-31.566406-31.566406-31.566406c-1.722656 0-3.414063.140625-5.054687.40625-15.03125 2.417969-26.511719 15.445312-26.511719 31.160156zm0 0" fill="#f6ba97"/><path d="m350.636719 249.535156c0 15.710938 11.480469 28.742188 26.511719 31.160156 2.726562-9.929687 4.1875-20.378906 4.1875-31.160156 0-10.785156-1.457032-21.234375-4.1875-31.160156-15.03125 2.417969-26.511719 15.445312-26.511719 31.160156zm0 0" fill="#eaa27f"/><path d="m393.484375 249.535156c0 6.230469-5.050781 11.28125-11.28125 11.28125s-11.28125-5.050781-11.28125-11.28125c0-6.230468 5.050781-11.28125 11.28125-11.28125s11.28125 5.050782 11.28125 11.28125zm0 0" fill="#eaa27f"/><path d="m373.4375 188.039062v44.722657c0 58.441406-42.695312 106.925781-98.597656 115.921875-.1875.03125-.386719.0625-.574219.09375-5.945313.949218-12.046875 1.421875-18.277344 1.421875-64.855469 0-117.433593-52.582031-117.433593-117.4375v-44.722657c0-13.65625 2.328124-26.78125 6.632812-38.972656 16.0625-45.707031 59.613281-78.472656 110.800781-78.472656h.011719c6.21875 0 12.328125.480469 18.285156 1.421875 56.175782 8.777344 99.152344 57.382813 99.152344 116.023437zm0 0" fill="#eaa27f"/><path d="m373.4375 188.039062v44.722657c0 58.441406-42.695312 106.925781-98.597656 115.921875-.1875.03125-.386719.0625-.574219.09375-56.175781-8.777344-99.140625-57.386719-99.140625-116.015625v-44.722657c0-58.640624 42.976562-107.246093 99.160156-116.023437 56.175782 8.777344 99.152344 57.382813 99.152344 116.023437zm0 0" fill="#f6ba97"/><g fill="#eaa27f"><path d="m335.929688 263.597656c0 8.078125-6.550782 14.628906-14.628907 14.628906s-14.628906-6.550781-14.628906-14.628906c0-8.082031 6.550781-14.628906 14.628906-14.628906s14.628907 6.546875 14.628907 14.628906zm0 0"/><path d="m205.316406 263.597656c0 8.078125-6.546875 14.628906-14.628906 14.628906-8.078125 0-14.628906-6.550781-14.628906-14.628906 0-8.082031 6.550781-14.628906 14.628906-14.628906 8.082031 0 14.628906 6.546875 14.628906 14.628906zm0 0"/><path d="m319.0625 222.84375c0-10.773438-8.730469-19.503906-19.503906-19.503906-10.773438 0-19.507813 8.730468-19.507813 19.503906"/><path d="m231.945312 222.84375c0-10.773438-8.730468-19.503906-19.503906-19.503906-10.773437 0-19.507812 8.730468-19.507812 19.503906"/></g><path d="m225.761719 231.148438c0 7.355468-5.964844 13.320312-13.320313 13.320312-7.359375 0-13.324218-5.964844-13.324218-13.320312 0-7.359376 5.964843-13.324219 13.324218-13.324219 7.355469 0 13.320313 5.964843 13.320313 13.324219zm0 0" fill="#2f373b"/><path d="m312.882812 231.148438c0 7.355468-5.964843 13.320312-13.324218 13.320312s-13.324219-5.964844-13.324219-13.320312c0-7.359376 5.964844-13.324219 13.324219-13.324219s13.324218 5.964843 13.324218 13.324219zm0 0" fill="#2f373b"/><path d="m269.320312 264.691406h-26.644531c-3.171875 0-5.746093-2.574218-5.746093-5.746094 0-3.175781 2.574218-5.75 5.746093-5.75h26.644531c3.175782 0 5.746094 2.574219 5.746094 5.75 0 3.171876-2.570312 5.746094-5.746094 5.746094zm0 0" fill="#eaa27f"/><path d="m256 301.050781c-9.835938 0-19.667969-2.464843-28.632812-7.394531-2.527344-1.386719-3.449219-4.5625-2.0625-7.09375 1.390624-2.527344 4.570312-3.449219 7.097656-2.0625 14.777344 8.125 32.417968 8.125 47.195312 0 2.527344-1.386719 5.703125-.464844 7.09375 2.0625 1.390625 2.53125.46875 5.707031-2.058594 7.09375-8.964843 4.929688-18.800781 7.394531-28.632812 7.394531zm0 0" fill="#eaa27f"/><path d="m223.046875 228.796875c0 3.152344-2.554687 5.707031-5.710937 5.707031-3.152344 0-5.707032-2.554687-5.707032-5.707031s2.554688-5.710937 5.707032-5.710937c3.15625 0 5.710937 2.558593 5.710937 5.710937zm0 0" fill="#fff"/><path d="m310.820312 228.796875c0 3.152344-2.558593 5.707031-5.710937 5.707031s-5.707031-2.554687-5.707031-5.707031 2.554687-5.710937 5.707031-5.710937 5.710937 2.558593 5.710937 5.710937zm0 0" fill="#fff"/><path d="m205.316406 163.984375v342.988281c-.867187-.167968-1.734375-.34375-2.601562-.53125-7.808594-1.652344-15.464844-3.660156-22.988282-6-.417968-.136718-.835937-.261718-1.253906-.394531-.28125-.085937-.554687-.179687-.835937-.273437-1.203125-.386719-2.414063-.785157-3.605469-1.191407-12.265625-4.136719-24.117188-9.183593-35.476562-15.066406v-319.53125zm0 0" fill="#f73b6c"/><path d="m377.140625 173.324219v45.050781c-77.375-6.5625-121.148437-47.777344-121.148437-84.347656 0 36.570312-43.769532 77.785156-121.144532 84.347656v-45.050781c0-66.90625 54.238282-121.144531 121.144532-121.144531s121.148437 54.238281 121.148437 121.144531zm0 0" fill="#f73b6c"/><path d="m275.585938 53.769531c-57.597657 9.351563-101.554688 59.320313-101.554688 119.558594v325.253906c-13.617188-4.585937-26.707031-10.300781-39.183594-17.019531v-308.234375c0-66.917969 54.238282-121.148437 121.144532-121.148437 6.675781 0 13.21875.542968 19.59375 1.589843zm0 0" fill="#dd104f"/><path d="m360.550781 152.589844c48.082031-43.15625 37.433594-90.632813 37.433594-90.632813s-47.476563-10.644531-90.628906 37.4375" fill="#2f373b"/><path d="m360.589844 152.628906c35.902344-32.226562 27.953125-67.679687 27.953125-67.679687s-35.453125-7.949219-67.679688 27.953125" fill="#151a1c"/><path d="m151.4375 152.589844c-48.082031-43.15625-37.433594-90.632813-37.433594-90.632813s47.476563-10.644531 90.632813 37.4375" fill="#2f373b"/><path d="m151.402344 152.628906c-35.90625-32.226562-27.953125-67.679687-27.953125-67.679687s35.449219-7.949219 67.675781 27.953125" fill="#151a1c"/></svg>