<svg height="512pt" viewBox="0 0 512 512" width="512pt" xmlns="http://www.w3.org/2000/svg"><path d="m512 256c0 141.386719-114.613281 256-256 256s-256-114.613281-256-256 114.613281-256 256-256 256 114.613281 256 256zm0 0" fill="#673389"/><path d="m414.964844 219.863281c29.585937-29.582031 29.585937-77.546875 0-107.132812-29.582032-29.582031-77.546875-29.582031-107.132813 0" fill="#d65a05"/><path d="m90.691406 219.863281c-29.585937-29.582031-29.585937-77.546875 0-107.132812 29.582032-29.582031 77.546875-29.582031 107.132813 0" fill="#d65a05"/><path d="m382.121094 449.578125v29.246094c-15.035156 8.515625-31.011719 15.578125-47.75 20.9375-1.734375.566406-3.46875 1.097656-5.226563 1.621093-6.507812 1.945313-13.132812 3.636719-19.851562 5.046876-2.945313.625-5.902344 1.203124-8.882813 1.714843-14.429687 2.539063-29.265625 3.855469-44.40625 3.855469s-29.980468-1.316406-44.410156-3.847656c-2.976562-.511719-5.933594-1.085938-8.878906-1.710938-7.808594-1.652344-15.464844-3.660156-22.988282-6-.417968-.136718-.835937-.261718-1.253906-.394531-.28125-.085937-.554687-.179687-.835937-.273437-16.730469-5.359376-32.714844-12.421876-47.753907-20.949219v-29.246094c0-35.289063 19.207032-66.089844 47.753907-82.507813 7.742187-4.460937 16.164062-7.855468 25.078125-9.988281 4.710937-1.136719 9.558594-1.921875 14.523437-2.320312 2.570313-.207031 5.160157-.3125 7.785157-.3125h61.949218c7.324219 0 14.453125.816406 21.296875 2.382812.34375.082031.6875.15625 1.023438.238281 8.914062 2.144532 17.335937 5.539063 25.078125 10 28.535156 16.425782 47.75 47.230469 47.75 82.507813zm0 0" fill="#eaa27f"/><path d="m382.121094 449.578125v29.246094c-35.421875 20.101562-76.121094 31.992187-119.503906 33.089843-2.203126.054688-4.398438.085938-6.613282.085938s-4.421875-.03125-6.613281-.09375c-24.671875-.617188-48.464844-4.734375-70.917969-11.859375v-50.46875c0-52.539063 42.597656-95.128906 95.148438-95.128906h13.351562c52.558594 0 95.148438 42.589843 95.148438 95.128906zm0 0" fill="#f6ba97"/><path d="m289.941406 317.800781v41.65625c0 15.25-10.054687 28.140625-23.90625 32.421875-3.167968.980469-6.546875 1.515625-10.042968 1.515625-18.742188 0-33.9375-15.195312-33.9375-33.9375v-41.65625zm0 0" fill="#eaa27f"/><path d="m289.941406 356.816406v2.640625c0 15.25-10.054687 28.140625-23.90625 32.421875-12.496094-3.84375-21.890625-14.707031-23.625-28.003906 2.265625.140625 4.546875.210938 6.835938.210938 6.421875 0 12.71875-.511719 18.851562-1.519532 7.554688-1.210937 14.855469-3.15625 21.84375-5.75zm0 0" fill="#f6ba97"/><path d="m161.355469 249.53125c0 15.714844-11.476563 28.742188-26.507813 31.160156-1.644531.269532-3.332031.40625-5.058594.40625-17.433593 0-31.5625-14.128906-31.5625-31.566406 0-17.433594 14.128907-31.5625 31.5625-31.5625 1.726563 0 3.414063.136719 5.058594.40625 15.03125 2.417969 26.507813 15.445312 26.507813 31.15625zm0 0" fill="#f6ba97"/><path d="m161.355469 249.53125c0 15.714844-11.476563 28.742188-26.507813 31.160156-2.730468-9.925781-4.1875-20.375-4.1875-31.160156 0-10.78125 1.457032-21.230469 4.1875-31.15625 15.03125 2.417969 26.507813 15.445312 26.507813 31.15625zm0 0" fill="#eaa27f"/><path d="m141.074219 249.53125c0 6.234375-5.050781 11.285156-11.285157 11.285156-6.230468 0-11.28125-5.050781-11.28125-11.285156 0-6.230469 5.050782-11.28125 11.28125-11.28125 6.234376 0 11.285157 5.050781 11.285157 11.28125zm0 0" fill="#eaa27f"/><path d="m350.640625 249.53125c0 15.714844 11.476563 28.742188 26.507813 31.160156 1.644531.269532 3.332031.40625 5.058593.40625 17.4375 0 31.5625-14.128906 31.5625-31.566406 0-17.433594-14.125-31.5625-31.5625-31.5625-1.726562 0-3.414062.136719-5.058593.40625-15.03125 2.417969-26.507813 15.445312-26.507813 31.15625zm0 0" fill="#f6ba97"/><path d="m350.640625 249.53125c0 15.714844 11.476563 28.742188 26.507813 31.160156 2.730468-9.925781 4.191406-20.375 4.191406-31.160156 0-10.78125-1.457032-21.230469-4.191406-31.15625-15.03125 2.417969-26.507813 15.445312-26.507813 31.15625zm0 0" fill="#eaa27f"/><path d="m393.488281 249.53125c0 6.234375-5.050781 11.285156-11.28125 11.285156s-11.28125-5.050781-11.28125-11.285156c0-6.230469 5.050781-11.28125 11.28125-11.28125s11.28125 5.050781 11.28125 11.28125zm0 0" fill="#eaa27f"/><path d="m373.4375 188.039062v44.722657c0 58.441406-42.691406 106.921875-98.59375 115.917969-.1875.03125-.386719.0625-.574219.097656-5.945312.949218-12.050781 1.417968-18.277343 1.417968-64.855469 0-117.4375-52.578124-117.4375-117.433593v-44.722657c0-13.65625 2.332031-26.78125 6.636718-38.976562 16.058594-45.703125 59.613282-78.46875 110.800782-78.46875h.011718c6.214844 0 12.328125.480469 18.285156 1.417969 56.171876 8.777343 99.148438 57.386719 99.148438 116.027343zm0 0" fill="#eaa27f"/><path d="m373.4375 188.039062v44.722657c0 58.441406-42.691406 106.921875-98.59375 115.917969-.1875.03125-.386719.0625-.574219.097656-56.175781-8.777344-99.140625-57.386719-99.140625-116.015625v-44.722657c0-58.640624 42.976563-107.25 99.160156-116.027343 56.171876 8.777343 99.148438 57.386719 99.148438 116.027343zm0 0" fill="#f6ba97"/><g fill="#eaa27f"><path d="m335.933594 263.59375c0 8.082031-6.550782 14.628906-14.628906 14.628906-8.078126 0-14.628907-6.546875-14.628907-14.628906 0-8.078125 6.550781-14.628906 14.628907-14.628906 8.078124 0 14.628906 6.550781 14.628906 14.628906zm0 0"/><path d="m205.320312 263.59375c0 8.082031-6.550781 14.628906-14.628906 14.628906s-14.628906-6.546875-14.628906-14.628906c0-8.078125 6.550781-14.628906 14.628906-14.628906s14.628906 6.550781 14.628906 14.628906zm0 0"/><path d="m319.066406 222.84375c0-10.773438-8.734375-19.507812-19.503906-19.507812-10.773438 0-19.507812 8.734374-19.507812 19.507812"/><path d="m231.949219 222.84375c0-10.773438-8.734375-19.507812-19.503907-19.507812-10.773437 0-19.507812 8.734374-19.507812 19.507812"/></g><path d="m225.765625 231.144531c0 7.359375-5.964844 13.324219-13.320313 13.324219-7.359374 0-13.324218-5.964844-13.324218-13.324219 0-7.355469 5.964844-13.320312 13.324218-13.320312 7.355469 0 13.320313 5.964843 13.320313 13.320312zm0 0" fill="#2f373b"/><path d="m312.882812 231.144531c0 7.359375-5.964843 13.324219-13.320312 13.324219-7.359375 0-13.324219-5.964844-13.324219-13.324219 0-7.355469 5.964844-13.320312 13.324219-13.320312 7.355469 0 13.320312 5.964843 13.320312 13.320312zm0 0" fill="#2f373b"/><path d="m269.324219 264.6875h-26.644531c-3.171876 0-5.746094-2.570312-5.746094-5.746094 0-3.171875 2.574218-5.746094 5.746094-5.746094h26.644531c3.175781 0 5.75 2.574219 5.75 5.746094 0 3.175782-2.574219 5.746094-5.75 5.746094zm0 0" fill="#eaa27f"/><path d="m256.003906 301.046875c-9.835937 0-19.667968-2.460937-28.632812-7.390625-2.527344-1.390625-3.453125-4.566406-2.0625-7.09375s4.566406-3.449219 7.09375-2.0625c14.777344 8.125 32.421875 8.125 47.199218 0 2.527344-1.390625 5.703126-.46875 7.09375 2.0625 1.390626 2.527344.46875 5.703125-2.0625 7.09375-8.960937 4.929688-18.796874 7.390625-28.628906 7.390625zm0 0" fill="#eaa27f"/><path d="m223.050781 228.796875c0 3.152344-2.554687 5.707031-5.707031 5.707031-3.15625 0-5.710938-2.554687-5.710938-5.707031 0-3.15625 2.554688-5.710937 5.710938-5.710937 3.152344 0 5.707031 2.554687 5.707031 5.710937zm0 0" fill="#fff"/><path d="m310.820312 228.796875c0 3.152344-2.554687 5.707031-5.707031 5.707031-3.152343 0-5.707031-2.554687-5.707031-5.707031 0-3.15625 2.554688-5.710937 5.707031-5.710937 3.152344 0 5.707031 2.554687 5.707031 5.710937zm0 0" fill="#fff"/><path d="m373.4375 150.214844v61.488281c-12.074219 0-21.859375-9.789063-21.859375-21.859375v-29.691406l-157.78125-29.320313-33.382813-6.207031v65.21875c0 12.070312-9.789062 21.859375-21.859374 21.859375v-61.488281c0-52.21875 42.332031-94.550782 94.550781-94.550782h45.789062c1.242188 0 2.484375.019532 3.730469.082032 50.476562 1.945312 90.8125 43.488281 90.8125 94.46875zm0 0" fill="#d65a05"/><path d="m373.4375 150.214844v61.488281c-12.074219 0-21.859375-9.789063-21.859375-21.859375v-29.691406l-157.78125-29.320313c8.695313-41.753906 44.921875-73.394531 88.828125-75.085937 50.476562 1.945312 90.8125 43.488281 90.8125 94.46875zm0 0" fill="#f46d11"/><path d="m333.535156 363.90625v136.117188c-1.453125.472656-2.914062.921874-4.390625 1.359374-6.507812 1.945313-13.132812 3.636719-19.851562 5.046876-2.945313.625-5.902344 1.203124-8.882813 1.714843-14.429687 2.539063-29.265625 3.855469-44.40625 3.855469s-29.980468-1.316406-44.410156-3.847656c-.867188-.144532-1.742188-.300782-2.609375-.46875-1.746094-.3125-3.492187-.660156-5.226563-1.023438-.34375-.074218-.699218-.148437-1.042968-.21875-8.234375-1.746094-16.3125-3.878906-24.242188-6.394531v-136.140625l24.242188-10.449219v63.269531c0 7.238282 2.316406 13.949219 6.269531 19.414063 6.027344 8.359375 15.847656 13.792969 26.9375 13.792969h40.164063c18.339843 0 33.207031-14.871094 33.207031-33.207032v-63.269531zm0 0" fill="#ffe05c"/><path d="m208.984375 436.140625v71.542969c-1.746094-.3125-3.492187-.660156-5.226563-1.023438-.34375-.074218-.699218-.148437-1.042968-.21875-8.234375-1.746094-16.3125-3.878906-24.242188-6.394531v-136.140625l24.242188-10.449219v63.269531c0 7.238282 2.316406 13.949219 6.269531 19.414063zm0 0" fill="#e89f18"/><path d="m351.578125 160.152344v-33.691406c0-4.511719-5.886719-6.238282-8.320313-2.4375l-19.808593 30.902343" fill="#ffe05c"/><path d="m323.449219 154.925781v-33.691406c0-4.511719-5.886719-6.238281-8.320313-2.4375l-19.804687 30.902344" fill="#ffe05c"/></svg>